<?xml version="1.0" encoding="UTF-8" standalone="no"?>
<svg
  xmlns:dc="http://purl.org/dc/elements/1.1/"
  xmlns:cc="http://creativecommons.org/ns#"
  xmlns:rdf="http://www.w3.org/1999/02/22-rdf-syntax-ns#"
  xmlns="http://www.w3.org/2000/svg"
  xmlns:sodipodi="http://sodipodi.sourceforge.net/DTD/sodipodi-0.dtd"
  xmlns:inkscape="http://www.inkscape.org/namespaces/inkscape"
  version="1.0"
  width="363.000000pt"
  height="298.000000pt"
  viewBox="0 0 363.000000 298.000000"
  preserveAspectRatio="xMidYMid meet"
  id="svg8"
  sodipodi:docname="kayak.svg"
  inkscape:version="0.92.2 (5c3e80d, 2017-08-06)">
  <metadata
     id="metadata14">
    <rdf:RDF>
      <cc:Work
         rdf:about="">
        <dc:format>image/svg+xml</dc:format>
        <dc:type
           rdf:resource="http://purl.org/dc/dcmitype/StillImage" />
      </cc:Work>
    </rdf:RDF>
  </metadata>
  <defs
     id="defs12" />
  <sodipodi:namedview
     pagecolor="#ffffff"
     bordercolor="#666666"
     borderopacity="1"
     objecttolerance="10"
     gridtolerance="10"
     guidetolerance="10"
     inkscape:pageopacity="0"
     inkscape:pageshadow="2"
     inkscape:window-width="1920"
     inkscape:window-height="1001"
     id="namedview10"
     showgrid="false"
     inkscape:zoom="2.56"
     inkscape:cx="143.08167"
     inkscape:cy="141.15804"
     inkscape:window-x="-9"
     inkscape:window-y="-9"
     inkscape:window-maximized="1"
     inkscape:current-layer="g6" />
  <g
     transform="translate(0.000000,298.000000) scale(0.100000,-0.100000)"
     id="g6"
     stroke="none"
     fill="#000000">
    <path
       style="fill:#ffff00;stroke-width:1.6836158"
       d="m 172.12994,238.44267 c -41.8725,-2.08046 -63.4358,-7.14602 -89.762238,-21.08656 -6.19009,-3.27781 -15.042843,-9.36109 -19.672787,-13.5184 l -8.418079,-7.55873 9.104225,-8.35315 c 16.441022,-15.08468 42.023269,-26.02265 73.296009,-31.33851 21.7668,-3.70001 86.24148,-5.02617 121.31728,-2.49534 59.47226,4.29112 134.72464,23.1301 152.10258,38.07797 4.36729,3.75658 4.38897,3.87975 1.28657,7.30786 -1.73555,1.91778 -10.81999,6.47514 -20.18761,10.12747 -59.70514,23.27832 -134.03084,33.06241 -219.06595,28.83739 z m 104.20183,-16.48151 c 18.01163,-4.35841 20.57832,-5.45273 25.57339,-10.9033 7.95969,-8.68553 8.93308,-16.11281 3.35834,-25.62539 -5.4512,-9.30176 -6.59065,-9.92473 -28.21496,-15.42577 -15.77058,-4.0119 -21.19164,-4.49436 -58.85458,-5.23785 -48.84377,-0.9642 -46.15267,-1.97101 -50.95702,19.06435 l -3.08142,13.49166 4.02301,14.15656 c 3.38499,11.91142 4.68487,14.35973 8.19626,15.43768 2.29528,0.70463 21.21984,0.96739 42.05459,0.58392 34.5996,-0.63682 39.61582,-1.11692 57.90239,-5.54186 z"
       id="path3705"
       inkscape:connector-curvature="0"
       transform="matrix(7.4999999,0,0,-7.4999999,0,2980)"
       inkscape:export-xdpi="96"
       inkscape:export-ydpi="96" />
    <path
       style="fill:#000000;stroke-width:0.21045198"
       d="M 193.4043 164.53125 C 187.39297 164.56742 183.00963 164.72686 181.22656 164.99609 C 174.01218 166.08544 171.52726 168.07361 169.63086 174.27539 C 168.94462 176.51959 164.34375 196.574 164.34375 197.32031 C 164.34375 197.90934 169.60449 216.24625 170.56641 219.00977 C 171.43938 221.51773 172.55237 223.81817 173.43164 224.93359 C 174.30903 226.04662 176.25333 226.93037 178.23242 227.11328 C 179.10054 227.19351 182.03772 227.33263 184.75781 227.42383 C 190.82178 227.62708 217.87549 227.49459 229.05664 227.20703 C 254.44384 226.55411 260.09805 225.87452 278.93359 221.21289 C 293.92716 217.50212 296.8495 216.23577 301.3457 211.49219 C 303.81726 208.88464 305.61627 206.40536 306.81836 203.94922 C 308.02667 201.48038 308.46211 199.96082 308.64258 197.59375 C 308.95857 193.44926 307.51334 189.09705 303.92188 183.38086 C 301.29473 179.19951 299.6906 177.65812 296.19141 175.95508 C 292.78271 174.29607 289.56233 173.30007 278.51367 170.48242 C 260.57819 165.90848 257.34215 165.63371 209.92969 164.67578 C 206.3932 164.60433 203.02817 164.55793 199.92188 164.53711 C 197.59214 164.52149 195.40807 164.51919 193.4043 164.53125 z "
       id="path3707"
       transform="matrix(7.4999999,0,0,-7.4999999,0,2980)"
       inkscape:export-xdpi="96"
       inkscape:export-ydpi="96" />
    <path
       style="fill:#000000;stroke-width:0.09765625"
       d=""
       id="path3712"
       inkscape:connector-curvature="0"
       transform="matrix(7.4999999,0,0,-7.4999999,0,2980)"
       inkscape:export-xdpi="96"
       inkscape:export-ydpi="96" />
    <path
       style="fill:#000000;stroke-width:0.73380792"
       d="m 1380.6069,1274.7643 c -49.0676,1.8624 -56.2981,2.8723 -68.9454,9.6296 -8.6499,4.6216 -13.8029,10.7574 -20.7748,24.7374 -9.6189,19.2877 -15.8876,38.586 -39.9056,122.8505 -16.3328,57.3017 -18.5728,66.0284 -18.1985,70.8985 0.5291,6.8852 22.0636,102.6136 34.2114,152.0826 8.2453,33.5769 15.1668,49.5144 27.0199,62.216 11.7556,12.5975 29.4439,20.4004 56.9098,25.1051 14.4487,2.4749 24.7657,3.222 58.4593,4.2335 30.5181,0.916 129.8849,0.4837 183.4036,-0.798 16.9304,-0.4055 54.0344,-1.2421 82.4533,-1.859 213.9937,-4.6452 274.3285,-9.2333 353.1512,-26.8549 31.1054,-6.9539 102.4722,-25.2525 133.1399,-34.1373 29.147,-8.4443 45.0379,-14.339 62.298,-23.1092 22.1258,-11.2425 33.7217,-21.8292 49.0251,-44.7583 30.9313,-46.3447 44.2759,-83.9234 41.4737,-116.792 -1.4654,-17.1895 -4.8727,-29.125 -13.1381,-46.0227 -10.2903,-21.0374 -23.4629,-39.0489 -43.9836,-60.1409 -22.4141,-23.0381 -38.4766,-33.0402 -71.506,-44.5267 -32.9147,-11.4466 -134.436,-37.1419 -192.0073,-48.5973 -75.6319,-15.0491 -144.6144,-20.1561 -316.9871,-23.4674 -50.5033,-0.9702 -274.9354,-1.4929 -296.0988,-0.6892 z"
       id="path3714"
       inkscape:connector-curvature="0"
       inkscape:export-xdpi="96"
       inkscape:export-ydpi="96" />
  </g>
</svg>
